<svg xmlns="http://www.w3.org/2000/svg" viewBox="0 0 800 800" width="800" height="800">
  <defs>
    <linearGradient id="backdrop" x1="0" y1="0" x2="0" y2="1">
      <stop offset="0" stop-color="#ece6dc"/>
      <stop offset="0.68" stop-color="#e3dbcf"/>
      <stop offset="0.68" stop-color="#d8cebf"/>
      <stop offset="1" stop-color="#cfc4b3"/>
    </linearGradient>
    <linearGradient id="glaze" x1="0" y1="0" x2="1" y2="0">
      <stop offset="0" stop-color="#2f3d38"/>
      <stop offset="0.35" stop-color="#43564f"/>
      <stop offset="0.7" stop-color="#394a44"/>
      <stop offset="1" stop-color="#26322e"/>
    </linearGradient>
    <linearGradient id="clay" x1="0" y1="0" x2="1" y2="0">
      <stop offset="0" stop-color="#b9a58a"/>
      <stop offset="0.4" stop-color="#d2c1a6"/>
      <stop offset="1" stop-color="#a8937a"/>
    </linearGradient>
    <radialGradient id="shadow" cx="0.5" cy="0.5" r="0.5">
      <stop offset="0" stop-color="#6f604c" stop-opacity="0.45"/>
      <stop offset="1" stop-color="#6f604c" stop-opacity="0"/>
    </radialGradient>
    <radialGradient id="inside" cx="0.45" cy="0.4" r="0.6">
      <stop offset="0" stop-color="#5b6f67"/>
      <stop offset="1" stop-color="#26322e"/>
    </radialGradient>
  </defs>
  <rect width="800" height="800" fill="url(#backdrop)"/>
  <ellipse cx="400" cy="604" rx="230" ry="34" fill="url(#shadow)"/>
  <path d="M294 330c-62 0-98 34-98 86s38 88 104 92" fill="none" stroke="#2f3d38" stroke-width="30" stroke-linecap="round"/>
  <path d="M294 330c-62 0-98 34-98 86s38 88 104 92" fill="none" stroke="#43564f" stroke-width="12" stroke-linecap="round" opacity="0.6"/>
  <path d="M292 262h256v296c0 26-21 46-46 46H338c-25 0-46-20-46-46z" fill="url(#glaze)"/>
  <path d="M292 520h256v38c0 26-21 46-46 46H338c-25 0-46-20-46-46z" fill="url(#clay)"/>
  <path d="M292 520c40 8 86 2 128 8s88 4 128-4" fill="none" stroke="#26322e" stroke-width="6" opacity="0.5"/>
  <ellipse cx="420" cy="262" rx="128" ry="22" fill="#1f2926"/>
  <ellipse cx="420" cy="258" rx="128" ry="18" fill="none" stroke="#5b6f67" stroke-width="5"/>
  <path d="M508 300v200" stroke="#ffffff" stroke-width="14" stroke-linecap="round" opacity="0.12"/>
</svg>
